<?xml version="1.0" standalone="no"?>
<!DOCTYPE svg PUBLIC "-//W3C//DTD SVG 20010904//EN"
 "http://www.w3.org/TR/2001/REC-SVG-20010904/DTD/svg10.dtd">
<svg version="1.0" xmlns="http://www.w3.org/2000/svg"
 width="1935.000000pt" height="367.000000pt" viewBox="0 0 1935.000000 367.000000"
 preserveAspectRatio="xMidYMid meet">

<g transform="translate(0.000000,367.000000) scale(0.100000,-0.100000)"
fill="#000000" stroke="none">
<path d="M12955 3178 c-3 -7 -4 -602 -3 -1323 l3 -1310 2885 0 2885 0 0 1320
0 1320 -2883 3 c-2301 2 -2884 0 -2887 -10z m3722 -163 c124 -42 213 -116 263
-220 51 -104 62 -164 67 -367 l5 -188 -170 0 -170 0 -4 178 c-3 156 -5 182
-24 217 -30 57 -91 88 -167 83 -83 -6 -139 -53 -157 -134 -12 -51 -12 -1387 0
-1438 18 -81 74 -128 157 -134 76 -5 137 26 167 83 19 36 21 60 24 258 l3 217
170 0 169 0 0 -192 c-1 -269 -24 -382 -101 -494 -52 -76 -120 -128 -214 -164
-73 -27 -257 -38 -350 -21 -189 35 -326 171 -373 371 -15 68 -17 146 -17 795
0 649 2 727 17 795 44 189 164 317 339 364 32 9 103 15 172 15 101 1 129 -3
194 -24z m-3017 -470 l0 -465 195 0 195 0 0 465 0 465 180 0 180 0 0 -1145 0
-1145 -180 0 -180 0 0 515 0 515 -192 -2 -193 -3 -3 -512 -2 -513 -175 0 -175
0 0 1145 0 1145 175 0 175 0 0 -465z m1780 455 c0 -13 358 -2230 365 -2257 l5
-23 -180 0 c-114 0 -180 4 -180 10 0 18 -60 415 -65 428 -3 9 -54 12 -205 12
-110 0 -200 -3 -201 -7 0 -5 -15 -105 -32 -223 l-32 -215 -162 -3 c-147 -2
-163 -1 -163 14 0 10 81 521 180 1137 99 616 180 1123 180 1128 0 5 110 9 245
9 149 0 245 -4 245 -10z m2140 -467 c0 -295 4 -473 9 -468 5 6 108 219 228
475 l219 465 177 3 c97 1 177 0 177 -3 0 -3 -95 -192 -211 -420 l-211 -415
213 -712 c116 -392 214 -719 217 -725 3 -10 -37 -13 -181 -13 l-186 0 -25 82
c-13 46 -79 268 -146 493 -67 226 -126 416 -130 424 -6 10 -30 -29 -79 -127
l-71 -142 0 -365 0 -365 -177 2 -178 3 -3 1130 c-1 622 0 1136 3 1143 3 9 49
12 180 12 l175 0 0 -477z"/>
<path d="M15101 2070 c-41 -298 -76 -552 -79 -565 l-4 -25 161 0 c147 0 161 2
161 18 0 9 -34 257 -75 549 -41 293 -75 540 -75 548 0 8 -3 15 -7 15 -5 0 -41
-243 -82 -540z"/>
<path d="M865 3036 c-108 -21 -178 -57 -249 -128 -67 -68 -105 -135 -133 -238
-17 -60 -18 -127 -18 -805 0 -676 2 -746 18 -805 56 -207 185 -330 383 -365
102 -18 164 -18 260 0 160 31 279 116 343 247 56 115 61 158 61 636 l0 432
-260 0 -260 0 2 -162 3 -163 88 -3 88 -3 -3 -272 c-3 -253 -4 -274 -24 -307
-44 -76 -130 -104 -224 -73 -64 21 -93 57 -110 137 -7 36 -10 269 -8 732 3
674 3 679 25 726 13 28 35 55 53 67 66 40 166 35 224 -10 52 -41 60 -71 66
-244 l5 -160 168 -3 167 -2 0 157 c0 183 -14 263 -62 360 -58 118 -164 205
-293 239 -76 21 -229 26 -310 10z"/>
<path d="M5614 3041 c-161 -26 -289 -111 -357 -238 -63 -118 -86 -335 -53
-494 39 -180 109 -283 382 -554 232 -230 263 -273 290 -394 20 -89 14 -203
-13 -258 -49 -101 -206 -122 -289 -39 -39 39 -54 102 -54 231 l0 95 -171 0
-172 0 6 -142 c3 -80 12 -168 21 -199 51 -189 167 -306 346 -350 71 -17 249
-18 320 0 192 47 322 185 365 387 19 91 19 266 -1 362 -40 192 -97 278 -369
547 -116 116 -226 232 -243 260 -63 96 -88 235 -61 338 23 92 81 126 206 119
37 -2 99 -51 116 -91 6 -14 13 -75 16 -136 l6 -110 170 0 170 0 -3 110 c-4
143 -22 229 -68 316 -61 117 -155 192 -278 225 -65 17 -216 25 -282 15z"/>
<path d="M6863 3040 c-203 -37 -326 -149 -390 -355 -17 -56 -18 -111 -18 -820
l0 -760 24 -79 c66 -212 218 -325 460 -343 104 -7 227 15 311 55 106 51 190
159 235 302 14 44 19 103 23 293 l4 237 -170 0 -170 0 -4 -212 c-3 -189 -5
-218 -23 -253 -49 -97 -188 -122 -275 -49 -61 52 -61 55 -58 830 3 676 4 700
23 739 46 91 178 120 264 58 55 -40 66 -82 69 -270 l4 -173 170 0 171 0 -5
198 c-5 163 -9 208 -26 262 -56 175 -179 295 -337 330 -68 15 -221 21 -282 10z"/>
<path d="M11931 3035 c-255 -48 -401 -249 -401 -555 0 -249 84 -416 323 -648
343 -331 372 -377 372 -587 0 -125 -9 -151 -68 -199 -33 -26 -45 -30 -105 -30
-136 -2 -180 58 -189 254 l-6 120 -168 0 -169 0 0 -92 c1 -322 104 -508 325
-584 70 -24 95 -28 205 -28 185 -1 298 39 396 140 97 99 145 240 146 424 0
177 -20 270 -83 388 -54 102 -109 170 -235 292 -292 281 -335 336 -369 465
-19 74 -19 137 0 201 24 80 76 117 166 117 119 0 164 -60 175 -236 l7 -107
166 2 166 3 -1 110 c-2 138 -16 210 -60 303 -59 123 -170 213 -298 242 -81 18
-216 20 -295 5z"/>
<path d="M3903 3008 c-5 -7 -17 -67 -26 -133 -51 -379 -198 -1434 -203 -1458
-3 -16 -8 -27 -10 -24 -3 3 -157 1097 -214 1525 l-13 92 -258 0 -259 0 2
-1147 3 -1148 155 0 155 0 5 855 c3 470 6 850 8 843 1 -7 58 -389 127 -850 69
-461 129 -841 134 -846 4 -4 72 -6 152 -5 l144 3 37 250 c132 884 216 1438
220 1452 2 4 5 -377 8 -847 l5 -855 165 0 165 0 0 1150 0 1150 -246 3 c-190 2
-249 -1 -256 -10z"/>
<path d="M7715 3008 c-3 -7 -4 -526 -3 -1153 l3 -1140 177 -3 178 -2 2 517 3
518 190 0 190 0 3 -518 2 -517 178 2 177 3 0 1150 0 1150 -175 0 -175 0 -5
-465 -5 -465 -190 0 -190 0 -5 465 -5 465 -173 3 c-132 2 -174 0 -177 -10z"/>
<path d="M9024 3007 c-2 -7 -3 -82 -2 -167 l3 -155 187 -3 188 -2 2 -983 3
-982 175 0 175 0 3 983 2 982 185 0 185 0 -2 168 -3 167 -548 3 c-442 2 -549
0 -553 -11z"/>
<path d="M10345 3008 c-3 -7 -4 -526 -3 -1153 l3 -1140 485 0 485 0 0 165 0
165 -307 3 -308 2 0 350 0 350 245 0 245 0 0 165 0 165 -245 0 -245 0 0 300 0
300 308 2 307 3 0 165 0 165 -483 3 c-381 2 -484 0 -487 -10z"/>
<path d="M1740 1865 l0 -1145 490 0 490 0 0 160 0 160 -307 2 -308 3 -3 353
-2 352 245 0 245 0 0 165 0 165 -245 0 -245 0 0 300 0 300 308 2 307 3 3 163
2 162 -490 0 -490 0 0 -1145z"/>
<path d="M4612 1863 l3 -1148 180 0 180 0 3 1148 2 1147 -185 0 -185 0 2
-1147z"/>
</g>
</svg>
